HIERARCHY
ROOT Hips
{
	OFFSET 0.000000 0.000000 0.000000
	CHANNELS 6 Xposition Yposition Zposition Zrotation Yrotation Xrotation 
	JOINT LHipJoint
	{
		OFFSET 0.000000 0.000000 0.000000
		CHANNELS 3 Zrotation Yrotation Xrotation
		JOINT LeftUpLeg
		{
			OFFSET 1.363060 -1.794630 0.839290
			CHANNELS 3 Zrotation Yrotation Xrotation
			JOINT LeftLeg
			{
				OFFSET 2.448110 -6.726130 0.000000
				CHANNELS 3 Zrotation Yrotation Xrotation
				JOINT LeftFoot
				{
					OFFSET 2.562200 -7.039590 0.000000
					CHANNELS 3 Zrotation Yrotation Xrotation
					JOINT LeftToeBase
					{
						OFFSET 0.157640 -0.433110 2.322550
						CHANNELS 3 Zrotation Yrotation Xrotation
						End Site
						{
							OFFSET 0.000000 0.000000 0.000000
						}
					}
				}
			}
		}
	}
	JOINT RHipJoint
	{
		OFFSET 0.000000 0.000000 0.000000
		CHANNELS 3 Zrotation Yrotation Xrotation
		JOINT RightUpLeg
		{
			OFFSET -1.305520 -1.794630 0.839290
			CHANNELS 3 Zrotation Yrotation Xrotation
			JOINT RightLeg
			{
				OFFSET -2.542530 -6.985550 0.000000
				CHANNELS 3 Zrotation Yrotation Xrotation
				JOINT RightFoot
				{
					OFFSET -2.568260 -7.056230 0.000000
					CHANNELS 3 Zrotation Yrotation Xrotation
					JOINT RightToeBase
					{
						OFFSET -0.164730 -0.452590 2.363150
						CHANNELS 3 Zrotation Yrotation Xrotation
						End Site
						{
							OFFSET 0.000000 0.000000 0.000000
						}
					}
				}
			}
		}
	}
	JOINT LowerBack
	{
		OFFSET 0.000000 0.000000 0.000000
		CHANNELS 3 Zrotation Yrotation Xrotation
		JOINT Spine
		{
			OFFSET 0.028270 2.035590 -0.193380
			CHANNELS 3 Zrotation Yrotation Xrotation
			JOINT Spine1
			{
				OFFSET 0.056720 2.048850 -0.042750
				CHANNELS 3 Zrotation Yrotation Xrotation
				JOINT Neck
				{
					OFFSET 0.000000 0.000000 0.000000
					CHANNELS 3 Zrotation Yrotation Xrotation
					JOINT Neck1
					{
						OFFSET -0.054170 1.746240 0.172020
						CHANNELS 3 Zrotation Yrotation Xrotation
						JOINT Head
						{
							OFFSET 0.104070 1.761360 -0.123970
							CHANNELS 3 Zrotation Yrotation Xrotation
							End Site
							{
								OFFSET 0.000000 0.000000 0.000000
							}
						}
					}
				}
				JOINT LeftShoulder
				{
					OFFSET 0.000000 0.000000 0.000000
					CHANNELS 3 Zrotation Yrotation Xrotation
					JOINT LeftArm
					{
						OFFSET 3.362410 1.200890 -0.311210
						CHANNELS 3 Zrotation Yrotation Xrotation
						JOINT LeftForeArm
						{
							OFFSET 4.983000 -0.000000 -0.000000
							CHANNELS 3 Zrotation Yrotation Xrotation
							JOINT LeftHand
							{
								OFFSET 3.483560 -0.000000 -0.000000
								CHANNELS 3 Zrotation Yrotation Xrotation
								JOINT LeftFingerBase
								{
									OFFSET 0.000000 0.000000 0.000000
									CHANNELS 3 Zrotation Yrotation Xrotation
									JOINT LeftHandIndex1
									{
										OFFSET 0.715260 -0.000000 -0.000000
										CHANNELS 3 Zrotation Yrotation Xrotation
										End Site
										{
											OFFSET 0.000000 0.000000 0.000000
										}
									}
								}
								JOINT LThumb
								{
									OFFSET 0.000000 0.000000 0.000000
									CHANNELS 3 Zrotation Yrotation Xrotation
									End Site
									{
										OFFSET 0.000000 0.000000 0.000000
									}
								}
							}
						}
					}
				}
				JOINT RightShoulder
				{
					OFFSET 0.000000 0.000000 0.000000
					CHANNELS 3 Zrotation Yrotation Xrotation
					JOINT RightArm
					{
						OFFSET -3.136600 1.374050 -0.404650
						CHANNELS 3 Zrotation Yrotation Xrotation
						JOINT RightForeArm
						{
							OFFSET -5.241900 -0.000000 -0.000000
							CHANNELS 3 Zrotation Yrotation Xrotation
							JOINT RightHand
							{
								OFFSET -3.444170 -0.000000 -0.000000
								CHANNELS 3 Zrotation Yrotation Xrotation
								JOINT RightFingerBase
								{
									OFFSET 0.000000 0.000000 0.000000
									CHANNELS 3 Zrotation Yrotation Xrotation
									JOINT RightHandIndex1
									{
										OFFSET -0.622530 -0.000000 -0.000000
										CHANNELS 3 Zrotation Yrotation Xrotation
										End Site
										{
											OFFSET 0.000000 0.000000 0.000000
										}
									}
								}
								JOINT RThumb
								{
									OFFSET 0.000000 0.000000 0.000000
									CHANNELS 3 Zrotation Yrotation Xrotation
									End Site
									{
										OFFSET 0.000000 0.000000 0.000000
									}
								}
							}
						}
					}
				}
			}
		}
	}
}
MOTION
Frames: 8
Frame Time: 0.008333
5.029188 16.671451 1.096593 24.403892 84.965227 41.823860 -8.682352 -0.199813 2.193425 -13.834269 -2.113982 -45.727905 -2.444070 0.392995 20.064096 0.783628 5.695451 5.091777 1.856200 -0.000000 -24.645200 11.711271 -3.683099 -1.356407 1.882786 -6.610812 -6.009188 0.112198 -3.154158 39.479929 -0.310581 5.108295 17.056148 2.284900 -0.000000 -77.629100 -9.832890 0.031529 -0.965689 -3.033976 0.556078 -3.103436 -7.319871 0.455858 0.967740 10.410738 -1.289900 -3.801284 -3.880255 -0.329743 0.851220 0.000000 0.000000 0.000000 -3.347329 11.388820 1.675754 -52.054714 12.287238 11.785128 -3.982018 -28.890910 -0.003970 0.840538 2.796366 0.024672 -0.123756 -0.104086 -0.000000 0.000000 0.000000 0.000000 0.000000 0.000000 0.000000 17.609743 2.274976 0.308641 57.992885 18.786374 18.206007 2.039368 48.271541 0.014115 3.407971 6.208640 0.189818 0.019979 -0.178196 0.000000 0.000000 0.000000 0.000000 0.000000 0.000000 0.000000 
5.188473 16.709064 1.089878 26.268628 84.974806 43.700155 -8.527763 -0.123919 2.159759 -14.140478 -2.295888 -44.900804 -2.487183 0.328332 20.051912 0.809997 5.797097 4.234789 1.787600 0.000000 -24.448600 11.979008 -3.556849 -1.354688 1.560434 -6.754411 -7.574366 -0.122983 -3.281803 42.214998 -0.577372 3.971630 19.129584 2.070600 -0.000000 -74.645200 -9.992984 0.025872 -0.918725 -3.077813 0.559940 -3.106097 -7.376937 0.456747 0.929915 10.466485 -1.069927 -3.703044 -3.925140 -0.333388 0.869904 0.000000 0.000000 0.000000 -3.506583 11.121064 1.686973 -51.968887 11.330535 11.744883 -4.002168 -28.405291 -0.003616 1.026218 2.779080 0.029179 -0.123066 -0.100282 -0.000000 0.000000 0.000000 0.000000 0.000000 0.000000 0.000000 17.799916 2.404495 0.311893 58.725636 18.191543 17.408084 2.117297 46.587862 0.013910 3.448629 6.125422 0.189312 0.021614 -0.170409 0.000000 0.000000 0.000000 0.000000 0.000000 0.000000 0.000000 
5.343968 16.748597 1.081330 27.514907 84.930056 44.931494 -8.406481 -0.049163 2.116188 -14.414853 -2.377643 -44.001170 -2.533762 0.259055 19.887539 0.831564 5.865332 3.472317 1.714700 -0.000000 -24.248100 12.193619 -3.407392 -1.352251 1.323146 -6.813572 -9.101253 -0.327862 -3.391781 44.864722 -0.849820 2.557561 20.838260 1.629000 0.000000 -71.571500 -10.109443 0.032002 -0.862055 -3.111296 0.573050 -3.107146 -7.430917 0.466781 0.892005 10.505084 -0.824304 -3.604151 -3.971479 -0.337063 0.889056 0.000000 0.000000 0.000000 -3.674389 10.878144 1.697988 -51.930623 10.336263 11.710524 -4.016343 -27.950941 -0.003103 1.259590 2.717035 0.034189 -0.122180 -0.096237 -0.000000 0.000000 0.000000 0.000000 0.000000 0.000000 0.000000 17.977879 2.562635 0.321062 59.416278 17.651738 16.567955 2.193592 44.854563 0.013650 3.475200 6.039307 0.187803 0.023259 -0.162719 0.000000 0.000000 0.000000 0.000000 0.000000 0.000000 0.000000 
5.496040 16.789900 1.071401 28.303693 84.850630 45.672731 -8.315453 0.022814 2.059534 -14.667811 -2.361245 -43.027341 -2.582118 0.186044 19.580483 0.846445 5.906629 2.838318 1.645500 0.000000 -24.041400 12.363177 -3.246452 -1.351641 1.156613 -6.808707 -10.575180 -0.504062 -3.493069 47.403325 -1.119040 0.898156 22.102448 0.972100 -0.000000 -68.677400 -10.189763 0.043708 -0.791238 -3.135997 0.589595 -3.107928 -7.483635 0.479825 0.844287 10.535234 -0.547741 -3.494489 -4.020034 -0.340949 0.911449 0.000000 0.000000 0.000000 -3.842901 10.608261 1.711656 -51.938836 9.381197 11.652318 -4.024611 -27.564260 -0.002488 1.523008 2.620641 0.039200 -0.121044 -0.092140 -0.000000 0.000000 0.000000 0.000000 0.000000 0.000000 0.000000 18.153690 2.752253 0.339406 60.060373 17.140348 15.680120 2.267447 43.100920 0.013356 3.496467 5.945120 0.185792 0.024798 -0.155202 0.000000 0.000000 0.000000 0.000000 0.000000 0.000000 0.000000 
5.645256 16.832643 1.059905 28.664542 84.755722 45.955370 -8.260078 0.088898 1.989325 -14.889323 -2.240478 -42.002173 -2.629081 0.112853 19.163994 0.852377 5.911637 2.337663 1.580500 -0.000000 -23.832600 12.485203 -3.085380 -1.353435 1.072298 -6.749093 -11.990735 -0.656549 -3.591332 49.811993 -1.377922 -0.960066 22.865856 0.139100 0.000001 -66.114901 -10.224754 0.057123 -0.706948 -3.149661 0.605196 -3.106476 -7.533592 0.491903 0.794278 10.557848 -0.255070 -3.381969 -4.068771 -0.344807 0.935134 0.000000 0.000000 0.000000 -4.008524 10.339347 1.727470 -51.995459 8.425270 11.603069 -4.028035 -27.218420 -0.001817 1.805961 2.493202 0.043714 -0.119773 -0.087888 -0.000000 0.000000 0.000000 0.000000 0.000000 0.000000 0.000000 18.321621 2.956514 0.363059 60.657298 16.668432 14.766498 2.338551 41.336703 0.013030 3.507698 5.852730 0.183279 0.026300 -0.147889 0.000000 0.000000 0.000000 0.000000 0.000000 0.000000 0.000000 
5.792098 16.876519 1.047026 28.713891 84.659761 45.895365 -8.236741 0.149395 1.906529 -15.079456 -2.025689 -40.932506 -2.673402 0.040637 18.657964 0.849045 5.882254 1.964450 1.521100 -0.000000 -23.628300 12.566679 -2.931074 -1.359525 1.062091 -6.652733 -13.344063 -0.791278 -3.690863 52.077250 -1.620473 -2.937224 23.097141 -0.798000 -0.000000 -63.907899 -10.215593 0.068764 -0.608780 -3.152662 0.616393 -3.103046 -7.580736 0.499571 0.740089 10.576745 0.046726 -3.264855 -4.116623 -0.348595 0.960725 0.000000 0.000000 0.000000 -4.165060 10.052874 1.746424 -52.099558 7.493235 11.562216 -4.027189 -26.922268 -0.001150 2.090101 2.346275 0.047128 -0.118416 -0.083521 -0.000000 0.000000 0.000000 0.000000 0.000000 0.000000 0.000000 18.481038 3.167088 0.392000 61.209100 16.223861 13.831233 2.406829 39.583466 0.012691 3.515354 5.760999 0.180564 0.027725 -0.140816 0.000000 0.000000 0.000000 0.000000 0.000000 0.000000 0.000000 
5.937052 16.921121 1.032774 28.528618 84.575146 45.571965 -8.243172 0.204591 1.814203 -15.233542 -1.730543 -39.830575 -2.713920 -0.029338 18.086420 0.836890 5.817607 1.696987 1.466000 -0.000000 -23.435501 12.611916 -2.788253 -1.370840 1.121921 -6.534607 -14.635571 -0.913468 -3.793123 54.187309 -1.841716 -4.938364 22.795231 -1.750200 -0.000000 -61.989800 -10.160078 0.076484 -0.499199 -3.144594 0.620866 -3.098642 -7.624259 0.500460 0.679398 10.592454 0.353286 -3.140912 -4.161916 -0.352240 0.989078 0.000000 0.000000 0.000000 -4.308989 9.731374 1.769546 -52.250747 6.608298 11.531112 -4.022483 -26.684726 -0.000546 2.357667 2.193149 0.049442 -0.117038 -0.079051 -0.000000 0.000000 0.000000 0.000000 0.000000 0.000000 0.000000 18.624490 3.379251 0.425901 61.721398 15.788953 12.871768 2.472403 37.863868 0.012358 3.527782 5.668089 0.178047 0.029025 -0.134023 0.000000 0.000000 0.000000 0.000000 0.000000 0.000000 0.000000 
6.080501 16.965925 1.017124 28.166209 84.511797 45.048053 -8.276728 0.254592 1.716322 -15.345750 -1.373976 -38.710118 -2.749773 -0.096161 17.473237 0.817169 5.717314 1.504152 1.412000 -0.000000 -23.258700 12.624421 -2.659075 -1.388107 1.248370 -6.407745 -15.869401 -1.026358 -3.897341 56.130841 -2.037387 -6.862239 21.992681 -2.625800 -0.000001 -60.253300 -10.056569 0.078019 -0.380865 -3.125143 0.616332 -3.090113 -7.662273 0.492991 0.626009 10.605274 0.627257 -3.026507 -4.202435 -0.355424 1.015905 0.000000 0.000000 0.000000 -4.435788 9.414081 1.793449 -52.449560 5.707234 11.549479 -4.014971 -26.472313 -0.000041 2.598598 2.040083 0.050458 -0.115798 -0.074318 -0.000000 0.000000 0.000000 0.000000 0.000000 0.000000 0.000000 18.749671 3.553904 0.460311 62.193271 15.402198 11.938449 2.536406 36.176461 0.012035 3.534015 5.584501 0.175530 0.030431 -0.127508 0.000000 0.000000 0.000000 0.000000 0.000000 0.000000 0.000000 
